<svg viewBox="0 0 196.56 196.56">
	<defs>
		<style>
			.cls-1{fill:#181818;}.cls-2{fill:#e40084;}.cls-3{fill:#fff;}
		</style>
	</defs>
	<g id="Layer_2" data-name="Layer 2">
		<g id="Layer_1-2" data-name="Layer 1">
			<rect class="cls-1" width="196.56" height="196.56" />
			<ellipse class="cls-2" cx="90.43" cy="96.03" rx="25.19" ry="22.75" />
			<path class="cls-3" d="M19.14,93.23l1.12,0q1.47.06,2,.06,2.39,0,3.63,0c1,0,1.76,0,2.29,0v-.92l0-1.67c0-.78.05-2.36.13-4.76l.06-2.13a.29.29,0,0,1,.33-.28l.34,0a2.25,2.25,0,0,0,.46,0,1.52,1.52,0,0,1,.51.06c.21.06.31.16.31.3l-.06.25c0,.14-.05.41-.09.8s-.11,1-.19,1.82c-.06.61-.11,2-.15,4.16s-.06,3.85-.06,5.07c0,.85,0,2.33-.12,4.45l-.06,2,0,1.22a6.29,6.29,0,0,0,.06.88l0,.18c0,.13,0,.19-.14.2l-.17,0a6.59,6.59,0,0,1-1.09.06c-.17,0-.25-.1-.25-.31l0-4.45c0-.32,0-.66,0-1s0-.67,0-1V94.78l-2.47.06c-.87,0-2,0-3.53,0H19.17q-1.17,0-1.8,0a7.68,7.68,0,0,1,0,.79q-.06,1-.06,1.86l0,3.29A20.66,20.66,0,0,0,17.4,104a4.29,4.29,0,0,1,.06.46c0,.28-.08.46-.23.53a1,1,0,0,1-.49.09h-.35a15,15,0,0,0-2.44.09c-.34,0-.55,0-.62-.24a2.56,2.56,0,0,1-.09-.86c0-.36,0-.64,0-.82l-.06-10.54.06-7.9a1.39,1.39,0,0,1,.14-.77.54.54,0,0,1,.44-.17l.67,0,.7-.06a3.19,3.19,0,0,1,.52,0l.79,0a5.94,5.94,0,0,0,.67,0c.23,0,.37.07.42.2a1,1,0,0,1,.06.41c0,.14,0,.24,0,.3q0,1.41-.12,3.63l-.12,3-.09,1.79Z" />
			<path class="cls-3" d="M48.28,87.19a15.85,15.85,0,0,1,1.55,4,14.77,14.77,0,0,1,.45,3.09,19.15,19.15,0,0,1-.6,4.39,10.46,10.46,0,0,1-2.54,4.65,7.24,7.24,0,0,1-5.64,2.15q-5.05,0-7.19-5.89a19.6,19.6,0,0,1-1.07-5.91,12,12,0,0,1,1.13-5.1,10.5,10.5,0,0,1,3-3.89,6.07,6.07,0,0,1,3.8-1.46c1.17,0,2,0,2.63.09a3.56,3.56,0,0,1,1.57.55A8.93,8.93,0,0,1,48.28,87.19ZM46.16,101.1a13.19,13.19,0,0,0,1.59-6.78A13.72,13.72,0,0,0,47,89.71a8.38,8.38,0,0,0-2.1-3.39,4.48,4.48,0,0,0-3.13-1.26H41a2.91,2.91,0,0,0-1.15.21,2.68,2.68,0,0,0-.88.64c-.67.67-1.23,1.29-1.69,1.85a10,10,0,0,0-1.37,2.48,9.81,9.81,0,0,0-.69,3.81,17.41,17.41,0,0,0,.63,4.77,8.1,8.1,0,0,0,2,3.59,4.76,4.76,0,0,0,3.54,1.39A5.21,5.21,0,0,0,46.16,101.1Z" />
			<path class="cls-3" d="M68.21,83.44a.87.87,0,0,1,.06.42c0,.17,0,.3,0,.38a.61.61,0,0,1-.15.54.84.84,0,0,1-.58.16l-.93,0c-.45,0-1,0-1.66,0h-.12l-.06,5.51,0,5.37c0,.81,0,1.84.14,3.09s.14,2,.16,2.36c.13,1.63.19,2.54.19,2.74,0,.41-.07.67-.28.79a2.1,2.1,0,0,1-1.06.19l-1.34,0-5-.09-1.89,0c-.2,0-.31-.21-.31-.61,0-.15,0-.42.06-.83s.07-.93.07-1.22c0-.52-.07-1.45-.07-2.77,0-1.77,0-3.66.08-5.67s.12-3.52.2-4.54c0-.52.06-1.24.06-2.13a20.71,20.71,0,0,0-.09-2.25l-.55,0-2.53.06c-.16,0-.24-.17-.24-.49l0-.67a.49.49,0,0,1,.07-.32.37.37,0,0,1,.26-.08l.31,0a2.58,2.58,0,0,0,.42,0l6.49,0,5.31-.06c.83,0,1.68,0,2.56,0C68,83.28,68.16,83.34,68.21,83.44Z" />
			<path class="cls-3" d="M91.14,85.17a8.52,8.52,0,0,1,2,4.14,31.46,31.46,0,0,1,.42,5.41,18.24,18.24,0,0,1-.73,5,11.13,11.13,0,0,1-2.25,4.34,4.77,4.77,0,0,1-3.75,1.77c-2.91,0-4.83-1.22-5.79-3.67a21.58,21.58,0,0,1-1.43-7.88,15.88,15.88,0,0,1,1.11-6.49,7.5,7.5,0,0,1,2.71-3.41,6.11,6.11,0,0,1,3.19-1A5.74,5.74,0,0,1,91.14,85.17Zm-3.38,12a6.28,6.28,0,0,0,0-4.33c-.25-.61-.59-.91-1-.91s-.89.35-1.14,1a6.44,6.44,0,0,0-.38,2.27,7.21,7.21,0,0,0,.24,2,1,1,0,0,0,1.07.79A1.3,1.3,0,0,0,87.76,97.19Z" />
			<path class="cls-3" d="M110.79,105.2q0,.12-.15.15l-.26,0h-.17l-3.44.09a.43.43,0,0,1-.38-.21,5.73,5.73,0,0,1-.38-.76,9.83,9.83,0,0,0-.55-1.22q-.61-1.09-2.1-4.11l-1.56-3,.09,1.62.16,2.31c.12,2.72.22,4.23.3,4.51a1.3,1.3,0,0,1,0,.31c0,.36-.19.54-.58.54a1.26,1.26,0,0,1-.3,0,14.55,14.55,0,0,0-2.38.13c-.85.08-1.37.12-1.55.12a.73.73,0,0,1-.54-.15.81.81,0,0,1-.13-.52l0-.7-.06-1.77c-.13-2.11-.19-4-.19-5.52a10.14,10.14,0,0,1,.09-1.67,31,31,0,0,0,.16-4.3c0-2.46,0-4.32-.13-5.57a6,6,0,0,1,0-.68,1.75,1.75,0,0,1,.1-.7c.06-.14.12-.21.19-.22l.38,0,.68-.06a31,31,0,0,1,3.35-.24,6.89,6.89,0,0,1,5.13,1.75,6.2,6.2,0,0,1,1.72,4.55,7.28,7.28,0,0,1-1.43,4.27,8.47,8.47,0,0,1-1.4,1.58l2.13,3.87c1.57,2.81,2.48,4.39,2.74,4.76A2.28,2.28,0,0,1,110.79,105.2Zm-8.35-13.29a1.59,1.59,0,0,0,.85-1.61A2.49,2.49,0,0,0,103,89a.83.83,0,0,0-.7-.43.77.77,0,0,0-.58.25,1.21,1.21,0,0,0,0,.42c0,.27,0,.53,0,.8a2.72,2.72,0,0,1,0,.48,4.74,4.74,0,0,0-.12,1.07l0,.27,0,.25A1.71,1.71,0,0,0,102.44,91.91Z" />
			<path class="cls-3" d="M133.31,84.13a7.1,7.1,0,0,1,1.78,1.64c.34.5.54.81.63.93a1.22,1.22,0,0,1,.3.61.41.41,0,0,1-.12.31,1.05,1.05,0,0,1-.31.21,1,1,0,0,0-.24.15,12.07,12.07,0,0,0-1,.77l-.81.62a5.41,5.41,0,0,1-.72.5.4.4,0,0,1-.24.09.51.51,0,0,1-.4-.24l-.24-.33a4,4,0,0,0-.32-.4,2.18,2.18,0,0,0-.66-.52,1.84,1.84,0,0,0-.88-.21c-.61,0-1.09.39-1.43,1.19a11.71,11.71,0,0,0-.52,4.23,13.51,13.51,0,0,0,.33,3.29,5,5,0,0,0,.81,1.85,1.3,1.3,0,0,0,.9.56,1.39,1.39,0,0,0,.93-.27,2.35,2.35,0,0,0,.56-1c.17-.49.43-.73.8-.73a1.62,1.62,0,0,1,.41.06l.35.09a12.34,12.34,0,0,0,1.49.38c.79.17,1.47.31,2,.41.29.06.43.31.43.73a2.54,2.54,0,0,1,0,.46,5.08,5.08,0,0,1-.24,1.07,9.14,9.14,0,0,1-2.18,3.52,6.19,6.19,0,0,1-4.59,1.57,7.3,7.3,0,0,1-3.75-1.13,8.79,8.79,0,0,1-3.2-3.76,15.72,15.72,0,0,1-1.31-6.94q0-6.09,2.35-8.33a7.45,7.45,0,0,1,5.27-2.24A6.55,6.55,0,0,1,133.31,84.13Z" />
			<path class="cls-3" d="M154.38,87.19a15.85,15.85,0,0,1,1.55,4,14.77,14.77,0,0,1,.45,3.09,19.15,19.15,0,0,1-.6,4.39,10.46,10.46,0,0,1-2.54,4.65,7.24,7.24,0,0,1-5.64,2.15q-5.06,0-7.19-5.89a19.6,19.6,0,0,1-1.07-5.91,12,12,0,0,1,1.13-5.1,10.5,10.5,0,0,1,3-3.89,6.07,6.07,0,0,1,3.79-1.46q1.77,0,2.64.09a3.56,3.56,0,0,1,1.57.55A8.93,8.93,0,0,1,154.38,87.19Zm-2.12,13.91a13.19,13.19,0,0,0,1.59-6.78,13.72,13.72,0,0,0-.75-4.61,8.38,8.38,0,0,0-2.1-3.39,4.48,4.48,0,0,0-3.13-1.26h-.8a2.91,2.91,0,0,0-1.15.21,2.68,2.68,0,0,0-.88.64c-.67.67-1.23,1.29-1.69,1.85A10,10,0,0,0,142,90.24a9.81,9.81,0,0,0-.69,3.81,17.41,17.41,0,0,0,.63,4.77,8.1,8.1,0,0,0,2,3.59,4.75,4.75,0,0,0,3.54,1.39A5.21,5.21,0,0,0,152.26,101.1Z" />
			<path class="cls-3" d="M165.27,87c-.08,1.67-.12,2.91-.12,3.75l.06,4.6q0,1.1,0,2.25l-.06,3.32,0,.61,0,.86.06,1.06,4.36.16,3.63,0h.06q.18,0,.21.06a.28.28,0,0,1,0,.17,1.37,1.37,0,0,0,0,.16,1.25,1.25,0,0,0,0,.46,4.55,4.55,0,0,1,0,.61.26.26,0,0,1-.15.27.88.88,0,0,1-.38.05l-.35,0-1.62-.09c-1.42-.12-2.43-.18-3-.18s-2.3.06-4.94.18l-2.77.09c-.45,0-.67-.2-.67-.61v-2.37l.12-10.21c0-.77,0-2.17-.15-4.21l-.13-3.74c0-.35.14-.52.4-.52a2.64,2.64,0,0,1,.52.09,2.49,2.49,0,0,0,.58.09,14.93,14.93,0,0,0,2,.12A12.68,12.68,0,0,0,164.6,84a1,1,0,0,1,.64.06.46.46,0,0,1,.19.4,2.28,2.28,0,0,1-.05.44,2.57,2.57,0,0,0,0,.5Z" />
			<path class="cls-3" d="M189.28,90.22a18.57,18.57,0,0,1,.58,4.8,12.19,12.19,0,0,1-.45,3.08,14.29,14.29,0,0,1-1.27,3.17,5.94,5.94,0,0,1-1.87,2.16,9.74,9.74,0,0,1-3.63,1.33,21.31,21.31,0,0,1-3.41.38h-3.11c-.22,0-.37,0-.43-.15a.34.34,0,0,1,0-.34.78.78,0,0,0,0-.24c0-.08,0-.19,0-.32s0-.32,0-.57q0-1,0-2L175.6,96l0-6.13c0-.52,0-1,0-1.53s0-.93-.06-1.3l-.06-1.92a6.45,6.45,0,0,1,.09-1c0-.19.12-.28.25-.28h.09a1,1,0,0,1,.27,0,1,1,0,0,0,.28,0l.59,0q.34,0,.72,0L179,84a28.47,28.47,0,0,1,3.08.15c.08,0,.35,0,.81.07a4.85,4.85,0,0,1,1.77.64,12.6,12.6,0,0,1,2.3,1.64A7.47,7.47,0,0,1,189.28,90.22Zm-4.72,13a6.64,6.64,0,0,0,2.77-2.83,11,11,0,0,0,1.1-5.37,11.43,11.43,0,0,0-1.08-5.37,7.61,7.61,0,0,0-2.73-3,7.49,7.49,0,0,0-3.81-1l-.12,2.77q-.09,1.5-.09,4.11c0,.17,0,1.07.09,2.72q.09,1,.09,1.95l0,3.93c0,.61,0,1.58,0,2.92A7.39,7.39,0,0,0,184.56,103.22Z" />
		</g>
	</g>
</svg>
